<mxfile host="app.diagrams.net" agent="Mozilla/5.0 (Windows NT 10.0; Win64; x64) AppleWebKit/537.36 (KHTML, like Gecko) Chrome/129.0.0.0 Safari/537.36" version="24.7.17">
  <diagram name="Page-1" id="GZgtaJvohxDp8lhhSS_S">
    <mxGraphModel dx="1467" dy="723" grid="1" gridSize="10" guides="1" tooltips="1" connect="1" arrows="1" fold="1" page="1" pageScale="1" pageWidth="827" pageHeight="1169" math="0" shadow="0">
      <root>
        <mxCell id="0" />
        <mxCell id="1" parent="0" />
        <mxCell id="eSmLKG9DAwGzTFis2q2t-7" value="" style="edgeStyle=orthogonalEdgeStyle;rounded=0;orthogonalLoop=1;jettySize=auto;html=1;" edge="1" parent="1" source="eSmLKG9DAwGzTFis2q2t-2" target="eSmLKG9DAwGzTFis2q2t-6">
          <mxGeometry relative="1" as="geometry" />
        </mxCell>
        <mxCell id="eSmLKG9DAwGzTFis2q2t-2" value="" style="ellipse;html=1;shape=startState;fillColor=#000000;strokeColor=#ff0000;" vertex="1" parent="1">
          <mxGeometry x="430" y="30" width="30" height="30" as="geometry" />
        </mxCell>
        <mxCell id="eSmLKG9DAwGzTFis2q2t-10" value="" style="edgeStyle=orthogonalEdgeStyle;rounded=0;orthogonalLoop=1;jettySize=auto;html=1;" edge="1" parent="1" source="eSmLKG9DAwGzTFis2q2t-6" target="eSmLKG9DAwGzTFis2q2t-9">
          <mxGeometry relative="1" as="geometry" />
        </mxCell>
        <mxCell id="eSmLKG9DAwGzTFis2q2t-6" value="Patient se connecte" style="whiteSpace=wrap;html=1;fillColor=#FFFFFF;strokeColor=#000000;" vertex="1" parent="1">
          <mxGeometry x="385" y="125" width="120" height="35" as="geometry" />
        </mxCell>
        <mxCell id="eSmLKG9DAwGzTFis2q2t-9" value="Consulter disponibilité des medecins" style="whiteSpace=wrap;html=1;fillColor=#FFFFFF;strokeColor=#000000;" vertex="1" parent="1">
          <mxGeometry x="385" y="200" width="120" height="35" as="geometry" />
        </mxCell>
        <mxCell id="eSmLKG9DAwGzTFis2q2t-12" value="Medecin disponible?" style="rhombus;whiteSpace=wrap;html=1;" vertex="1" parent="1">
          <mxGeometry x="360" y="280" width="190" height="60" as="geometry" />
        </mxCell>
        <mxCell id="eSmLKG9DAwGzTFis2q2t-13" value="" style="endArrow=classic;html=1;rounded=0;entryX=0.463;entryY=0.017;entryDx=0;entryDy=0;entryPerimeter=0;exitX=0.5;exitY=1;exitDx=0;exitDy=0;" edge="1" parent="1" source="eSmLKG9DAwGzTFis2q2t-9" target="eSmLKG9DAwGzTFis2q2t-12">
          <mxGeometry width="50" height="50" relative="1" as="geometry">
            <mxPoint x="448" y="240" as="sourcePoint" />
            <mxPoint x="300" y="240" as="targetPoint" />
          </mxGeometry>
        </mxCell>
        <mxCell id="eSmLKG9DAwGzTFis2q2t-14" value="" style="endArrow=classic;html=1;rounded=0;exitX=0;exitY=0.5;exitDx=0;exitDy=0;entryX=0.425;entryY=0.033;entryDx=0;entryDy=0;entryPerimeter=0;" edge="1" parent="1" source="eSmLKG9DAwGzTFis2q2t-12" target="eSmLKG9DAwGzTFis2q2t-16">
          <mxGeometry width="50" height="50" relative="1" as="geometry">
            <mxPoint x="260" y="320" as="sourcePoint" />
            <mxPoint x="240" y="400" as="targetPoint" />
            <Array as="points">
              <mxPoint x="240" y="310" />
            </Array>
          </mxGeometry>
        </mxCell>
        <mxCell id="eSmLKG9DAwGzTFis2q2t-51" value="OUI" style="edgeLabel;html=1;align=center;verticalAlign=middle;resizable=0;points=[];" vertex="1" connectable="0" parent="eSmLKG9DAwGzTFis2q2t-14">
          <mxGeometry x="-0.6824" y="-3" relative="1" as="geometry">
            <mxPoint as="offset" />
          </mxGeometry>
        </mxCell>
        <mxCell id="eSmLKG9DAwGzTFis2q2t-15" value="" style="endArrow=classic;html=1;rounded=0;entryX=0.5;entryY=0;entryDx=0;entryDy=0;" edge="1" parent="1" target="eSmLKG9DAwGzTFis2q2t-17">
          <mxGeometry width="50" height="50" relative="1" as="geometry">
            <mxPoint x="550" y="310" as="sourcePoint" />
            <mxPoint x="680" y="400" as="targetPoint" />
            <Array as="points">
              <mxPoint x="660" y="310" />
            </Array>
          </mxGeometry>
        </mxCell>
        <mxCell id="eSmLKG9DAwGzTFis2q2t-52" value="NON" style="edgeLabel;html=1;align=center;verticalAlign=middle;resizable=0;points=[];" vertex="1" connectable="0" parent="eSmLKG9DAwGzTFis2q2t-15">
          <mxGeometry x="-0.5867" y="1" relative="1" as="geometry">
            <mxPoint as="offset" />
          </mxGeometry>
        </mxCell>
        <mxCell id="eSmLKG9DAwGzTFis2q2t-16" value="Sélctionner crénneau horaire" style="rounded=0;whiteSpace=wrap;html=1;" vertex="1" parent="1">
          <mxGeometry x="190" y="400" width="120" height="60" as="geometry" />
        </mxCell>
        <mxCell id="eSmLKG9DAwGzTFis2q2t-17" value="le patient choisit une autre date" style="rounded=0;whiteSpace=wrap;html=1;" vertex="1" parent="1">
          <mxGeometry x="600" y="400" width="120" height="60" as="geometry" />
        </mxCell>
        <mxCell id="eSmLKG9DAwGzTFis2q2t-18" value="" style="endArrow=classic;html=1;rounded=0;exitX=0.5;exitY=1;exitDx=0;exitDy=0;entryX=0.5;entryY=0;entryDx=0;entryDy=0;" edge="1" parent="1" source="eSmLKG9DAwGzTFis2q2t-16" target="eSmLKG9DAwGzTFis2q2t-19">
          <mxGeometry width="50" height="50" relative="1" as="geometry">
            <mxPoint x="200" y="560" as="sourcePoint" />
            <mxPoint x="250" y="510" as="targetPoint" />
          </mxGeometry>
        </mxCell>
        <mxCell id="eSmLKG9DAwGzTFis2q2t-19" value="Confirmer rendez-vous" style="rounded=0;whiteSpace=wrap;html=1;" vertex="1" parent="1">
          <mxGeometry x="190" y="490" width="120" height="60" as="geometry" />
        </mxCell>
        <mxCell id="eSmLKG9DAwGzTFis2q2t-20" value="Le rendez-vous est enregistré" style="rounded=0;whiteSpace=wrap;html=1;" vertex="1" parent="1">
          <mxGeometry x="190" y="590" width="120" height="60" as="geometry" />
        </mxCell>
        <mxCell id="eSmLKG9DAwGzTFis2q2t-21" value="" style="endArrow=classic;html=1;rounded=0;exitX=0.5;exitY=1;exitDx=0;exitDy=0;entryX=0.5;entryY=0;entryDx=0;entryDy=0;" edge="1" parent="1" source="eSmLKG9DAwGzTFis2q2t-19" target="eSmLKG9DAwGzTFis2q2t-20">
          <mxGeometry width="50" height="50" relative="1" as="geometry">
            <mxPoint x="50" y="650" as="sourcePoint" />
            <mxPoint x="100" y="600" as="targetPoint" />
          </mxGeometry>
        </mxCell>
        <mxCell id="eSmLKG9DAwGzTFis2q2t-22" value="" style="strokeWidth=2;html=1;shape=mxgraph.flowchart.decision;whiteSpace=wrap;" vertex="1" parent="1">
          <mxGeometry x="440" y="670" width="50" height="50" as="geometry" />
        </mxCell>
        <mxCell id="eSmLKG9DAwGzTFis2q2t-23" value="" style="endArrow=classic;html=1;rounded=0;exitX=0.5;exitY=1;exitDx=0;exitDy=0;entryX=0;entryY=0.5;entryDx=0;entryDy=0;entryPerimeter=0;" edge="1" parent="1" source="eSmLKG9DAwGzTFis2q2t-20" target="eSmLKG9DAwGzTFis2q2t-22">
          <mxGeometry width="50" height="50" relative="1" as="geometry">
            <mxPoint x="250" y="740" as="sourcePoint" />
            <mxPoint x="360" y="700" as="targetPoint" />
            <Array as="points">
              <mxPoint x="250" y="695" />
            </Array>
          </mxGeometry>
        </mxCell>
        <mxCell id="eSmLKG9DAwGzTFis2q2t-24" value="" style="endArrow=classic;html=1;rounded=0;exitX=0.5;exitY=1;exitDx=0;exitDy=0;entryX=1;entryY=0.5;entryDx=0;entryDy=0;entryPerimeter=0;" edge="1" parent="1" source="eSmLKG9DAwGzTFis2q2t-17" target="eSmLKG9DAwGzTFis2q2t-22">
          <mxGeometry width="50" height="50" relative="1" as="geometry">
            <mxPoint x="650" y="580" as="sourcePoint" />
            <mxPoint x="590" y="680" as="targetPoint" />
            <Array as="points">
              <mxPoint x="660" y="695" />
            </Array>
          </mxGeometry>
        </mxCell>
        <mxCell id="eSmLKG9DAwGzTFis2q2t-25" value="" style="endArrow=classic;html=1;rounded=0;exitX=0.5;exitY=1;exitDx=0;exitDy=0;exitPerimeter=0;entryX=0.5;entryY=0;entryDx=0;entryDy=0;" edge="1" parent="1" source="eSmLKG9DAwGzTFis2q2t-22" target="eSmLKG9DAwGzTFis2q2t-26">
          <mxGeometry width="50" height="50" relative="1" as="geometry">
            <mxPoint x="480" y="800" as="sourcePoint" />
            <mxPoint x="465" y="760" as="targetPoint" />
          </mxGeometry>
        </mxCell>
        <mxCell id="eSmLKG9DAwGzTFis2q2t-26" value="Le patient se rend a l&#39;hopital" style="rounded=0;whiteSpace=wrap;html=1;" vertex="1" parent="1">
          <mxGeometry x="405" y="760" width="120" height="60" as="geometry" />
        </mxCell>
        <mxCell id="eSmLKG9DAwGzTFis2q2t-27" value="Accès au dossier patient par le personnel médical" style="rounded=0;whiteSpace=wrap;html=1;" vertex="1" parent="1">
          <mxGeometry x="405" y="860" width="120" height="60" as="geometry" />
        </mxCell>
        <mxCell id="eSmLKG9DAwGzTFis2q2t-28" value="Le personnel médical consulte et met a jour le dossier" style="rounded=0;whiteSpace=wrap;html=1;" vertex="1" parent="1">
          <mxGeometry x="405" y="960" width="120" height="60" as="geometry" />
        </mxCell>
        <mxCell id="eSmLKG9DAwGzTFis2q2t-29" value="Soins administrés" style="rounded=0;whiteSpace=wrap;html=1;" vertex="1" parent="1">
          <mxGeometry x="405" y="1060" width="120" height="60" as="geometry" />
        </mxCell>
        <mxCell id="eSmLKG9DAwGzTFis2q2t-30" value="" style="endArrow=classic;html=1;rounded=0;exitX=0.5;exitY=1;exitDx=0;exitDy=0;entryX=0.5;entryY=0;entryDx=0;entryDy=0;" edge="1" parent="1" source="eSmLKG9DAwGzTFis2q2t-26" target="eSmLKG9DAwGzTFis2q2t-27">
          <mxGeometry width="50" height="50" relative="1" as="geometry">
            <mxPoint x="250" y="870" as="sourcePoint" />
            <mxPoint x="300" y="820" as="targetPoint" />
          </mxGeometry>
        </mxCell>
        <mxCell id="eSmLKG9DAwGzTFis2q2t-31" value="" style="endArrow=classic;html=1;rounded=0;exitX=0.5;exitY=1;exitDx=0;exitDy=0;entryX=0.5;entryY=0;entryDx=0;entryDy=0;" edge="1" parent="1" source="eSmLKG9DAwGzTFis2q2t-27" target="eSmLKG9DAwGzTFis2q2t-28">
          <mxGeometry width="50" height="50" relative="1" as="geometry">
            <mxPoint x="240" y="1030" as="sourcePoint" />
            <mxPoint x="290" y="980" as="targetPoint" />
          </mxGeometry>
        </mxCell>
        <mxCell id="eSmLKG9DAwGzTFis2q2t-32" value="" style="endArrow=classic;html=1;rounded=0;exitX=0.5;exitY=1;exitDx=0;exitDy=0;entryX=0.5;entryY=0;entryDx=0;entryDy=0;" edge="1" parent="1" source="eSmLKG9DAwGzTFis2q2t-28" target="eSmLKG9DAwGzTFis2q2t-29">
          <mxGeometry width="50" height="50" relative="1" as="geometry">
            <mxPoint x="200" y="1090" as="sourcePoint" />
            <mxPoint x="250" y="1040" as="targetPoint" />
          </mxGeometry>
        </mxCell>
        <mxCell id="eSmLKG9DAwGzTFis2q2t-33" value="soins terminée ?" style="rhombus;whiteSpace=wrap;html=1;" vertex="1" parent="1">
          <mxGeometry x="340" y="1160" width="250" height="60" as="geometry" />
        </mxCell>
        <mxCell id="eSmLKG9DAwGzTFis2q2t-34" value="" style="endArrow=classic;html=1;rounded=0;entryX=0.5;entryY=0;entryDx=0;entryDy=0;exitX=0.5;exitY=1;exitDx=0;exitDy=0;" edge="1" parent="1" source="eSmLKG9DAwGzTFis2q2t-29" target="eSmLKG9DAwGzTFis2q2t-33">
          <mxGeometry width="50" height="50" relative="1" as="geometry">
            <mxPoint x="290" y="1180" as="sourcePoint" />
            <mxPoint x="340" y="1130" as="targetPoint" />
          </mxGeometry>
        </mxCell>
        <mxCell id="eSmLKG9DAwGzTFis2q2t-35" value="" style="endArrow=classic;html=1;rounded=0;exitX=0;exitY=0.5;exitDx=0;exitDy=0;entryX=0.5;entryY=0;entryDx=0;entryDy=0;" edge="1" parent="1" source="eSmLKG9DAwGzTFis2q2t-33" target="eSmLKG9DAwGzTFis2q2t-40">
          <mxGeometry width="50" height="50" relative="1" as="geometry">
            <mxPoint x="230" y="1180" as="sourcePoint" />
            <mxPoint x="280" y="1240" as="targetPoint" />
            <Array as="points">
              <mxPoint x="280" y="1190" />
            </Array>
          </mxGeometry>
        </mxCell>
        <mxCell id="eSmLKG9DAwGzTFis2q2t-37" value="OUI" style="edgeLabel;html=1;align=center;verticalAlign=middle;resizable=0;points=[];" vertex="1" connectable="0" parent="eSmLKG9DAwGzTFis2q2t-35">
          <mxGeometry x="-0.8173" y="-1" relative="1" as="geometry">
            <mxPoint as="offset" />
          </mxGeometry>
        </mxCell>
        <mxCell id="eSmLKG9DAwGzTFis2q2t-36" value="" style="endArrow=classic;html=1;rounded=0;exitX=1;exitY=0.5;exitDx=0;exitDy=0;entryX=0.409;entryY=-0.017;entryDx=0;entryDy=0;entryPerimeter=0;" edge="1" parent="1" source="eSmLKG9DAwGzTFis2q2t-33" target="eSmLKG9DAwGzTFis2q2t-39">
          <mxGeometry width="50" height="50" relative="1" as="geometry">
            <mxPoint x="600" y="1200" as="sourcePoint" />
            <mxPoint x="680" y="1250" as="targetPoint" />
            <Array as="points">
              <mxPoint x="680" y="1190" />
            </Array>
          </mxGeometry>
        </mxCell>
        <mxCell id="eSmLKG9DAwGzTFis2q2t-38" value="NON" style="edgeLabel;html=1;align=center;verticalAlign=middle;resizable=0;points=[];" vertex="1" connectable="0" parent="eSmLKG9DAwGzTFis2q2t-36">
          <mxGeometry x="-0.8743" y="-3" relative="1" as="geometry">
            <mxPoint as="offset" />
          </mxGeometry>
        </mxCell>
        <mxCell id="eSmLKG9DAwGzTFis2q2t-39" value="Planification d&#39;un nouveau rendez-vous" style="rounded=0;whiteSpace=wrap;html=1;" vertex="1" parent="1">
          <mxGeometry x="630" y="1240" width="120" height="60" as="geometry" />
        </mxCell>
        <mxCell id="eSmLKG9DAwGzTFis2q2t-40" value="Generer la facture" style="rounded=0;whiteSpace=wrap;html=1;" vertex="1" parent="1">
          <mxGeometry x="220" y="1240" width="120" height="60" as="geometry" />
        </mxCell>
        <mxCell id="eSmLKG9DAwGzTFis2q2t-41" value="" style="endArrow=classic;html=1;rounded=0;exitX=0.5;exitY=1;exitDx=0;exitDy=0;entryX=0.5;entryY=0;entryDx=0;entryDy=0;" edge="1" parent="1" source="eSmLKG9DAwGzTFis2q2t-40" target="eSmLKG9DAwGzTFis2q2t-42">
          <mxGeometry width="50" height="50" relative="1" as="geometry">
            <mxPoint x="260" y="1430" as="sourcePoint" />
            <mxPoint x="280" y="1360" as="targetPoint" />
          </mxGeometry>
        </mxCell>
        <mxCell id="eSmLKG9DAwGzTFis2q2t-42" value="Envoyer la facture au patient" style="rounded=0;whiteSpace=wrap;html=1;" vertex="1" parent="1">
          <mxGeometry x="220" y="1360" width="120" height="60" as="geometry" />
        </mxCell>
        <mxCell id="eSmLKG9DAwGzTFis2q2t-43" value="Patient recois la facture" style="rounded=0;whiteSpace=wrap;html=1;" vertex="1" parent="1">
          <mxGeometry x="220" y="1480" width="120" height="60" as="geometry" />
        </mxCell>
        <mxCell id="eSmLKG9DAwGzTFis2q2t-44" value="" style="endArrow=classic;html=1;rounded=0;exitX=0.5;exitY=1;exitDx=0;exitDy=0;entryX=0.5;entryY=0;entryDx=0;entryDy=0;" edge="1" parent="1" source="eSmLKG9DAwGzTFis2q2t-42" target="eSmLKG9DAwGzTFis2q2t-43">
          <mxGeometry width="50" height="50" relative="1" as="geometry">
            <mxPoint x="100" y="1510" as="sourcePoint" />
            <mxPoint x="150" y="1460" as="targetPoint" />
          </mxGeometry>
        </mxCell>
        <mxCell id="eSmLKG9DAwGzTFis2q2t-45" value="Patient effcture paiement" style="rounded=0;whiteSpace=wrap;html=1;" vertex="1" parent="1">
          <mxGeometry x="220" y="1580" width="120" height="60" as="geometry" />
        </mxCell>
        <mxCell id="eSmLKG9DAwGzTFis2q2t-46" value="" style="endArrow=classic;html=1;rounded=0;exitX=0.5;exitY=1;exitDx=0;exitDy=0;entryX=0.5;entryY=0;entryDx=0;entryDy=0;" edge="1" parent="1" source="eSmLKG9DAwGzTFis2q2t-43" target="eSmLKG9DAwGzTFis2q2t-45">
          <mxGeometry width="50" height="50" relative="1" as="geometry">
            <mxPoint x="60" y="1600" as="sourcePoint" />
            <mxPoint x="110" y="1550" as="targetPoint" />
          </mxGeometry>
        </mxCell>
        <mxCell id="eSmLKG9DAwGzTFis2q2t-47" value="Le paiement est validé" style="rounded=0;whiteSpace=wrap;html=1;" vertex="1" parent="1">
          <mxGeometry x="220" y="1680" width="120" height="60" as="geometry" />
        </mxCell>
        <mxCell id="eSmLKG9DAwGzTFis2q2t-48" value="" style="endArrow=classic;html=1;rounded=0;exitX=0.5;exitY=1;exitDx=0;exitDy=0;entryX=0.5;entryY=0;entryDx=0;entryDy=0;" edge="1" parent="1" source="eSmLKG9DAwGzTFis2q2t-45" target="eSmLKG9DAwGzTFis2q2t-47">
          <mxGeometry width="50" height="50" relative="1" as="geometry">
            <mxPoint x="90" y="1720" as="sourcePoint" />
            <mxPoint x="140" y="1670" as="targetPoint" />
          </mxGeometry>
        </mxCell>
        <mxCell id="eSmLKG9DAwGzTFis2q2t-49" value="Mise a jour compte financiers" style="rounded=0;whiteSpace=wrap;html=1;" vertex="1" parent="1">
          <mxGeometry x="220" y="1780" width="120" height="60" as="geometry" />
        </mxCell>
        <mxCell id="eSmLKG9DAwGzTFis2q2t-50" value="" style="endArrow=classic;html=1;rounded=0;exitX=0.5;exitY=1;exitDx=0;exitDy=0;entryX=0.5;entryY=0;entryDx=0;entryDy=0;" edge="1" parent="1" source="eSmLKG9DAwGzTFis2q2t-47" target="eSmLKG9DAwGzTFis2q2t-49">
          <mxGeometry width="50" height="50" relative="1" as="geometry">
            <mxPoint x="120" y="1800" as="sourcePoint" />
            <mxPoint x="170" y="1750" as="targetPoint" />
          </mxGeometry>
        </mxCell>
        <mxCell id="eSmLKG9DAwGzTFis2q2t-53" value="" style="endArrow=classic;html=1;rounded=0;exitX=0.5;exitY=1;exitDx=0;exitDy=0;entryX=0;entryY=0.5;entryDx=0;entryDy=0;entryPerimeter=0;" edge="1" parent="1" source="eSmLKG9DAwGzTFis2q2t-49" target="eSmLKG9DAwGzTFis2q2t-54">
          <mxGeometry width="50" height="50" relative="1" as="geometry">
            <mxPoint x="270" y="1910" as="sourcePoint" />
            <mxPoint x="420" y="1880" as="targetPoint" />
            <Array as="points">
              <mxPoint x="280" y="1880" />
            </Array>
          </mxGeometry>
        </mxCell>
        <mxCell id="eSmLKG9DAwGzTFis2q2t-54" value="" style="rhombus;whiteSpace=wrap;html=1;" vertex="1" parent="1">
          <mxGeometry x="425" y="1860" width="40" height="40" as="geometry" />
        </mxCell>
        <mxCell id="eSmLKG9DAwGzTFis2q2t-55" value="" style="endArrow=classic;html=1;rounded=0;exitX=0.5;exitY=1;exitDx=0;exitDy=0;entryX=1;entryY=0.5;entryDx=0;entryDy=0;" edge="1" parent="1" source="eSmLKG9DAwGzTFis2q2t-39" target="eSmLKG9DAwGzTFis2q2t-54">
          <mxGeometry width="50" height="50" relative="1" as="geometry">
            <mxPoint x="660" y="1650" as="sourcePoint" />
            <mxPoint x="560" y="1850" as="targetPoint" />
            <Array as="points">
              <mxPoint x="690" y="1880" />
            </Array>
          </mxGeometry>
        </mxCell>
        <mxCell id="eSmLKG9DAwGzTFis2q2t-56" value="" style="endArrow=classic;html=1;rounded=0;exitX=0.5;exitY=1;exitDx=0;exitDy=0;entryX=0.5;entryY=0;entryDx=0;entryDy=0;" edge="1" parent="1" source="eSmLKG9DAwGzTFis2q2t-54" target="eSmLKG9DAwGzTFis2q2t-58">
          <mxGeometry width="50" height="50" relative="1" as="geometry">
            <mxPoint x="460" y="2020" as="sourcePoint" />
            <mxPoint x="445" y="1960" as="targetPoint" />
          </mxGeometry>
        </mxCell>
        <mxCell id="eSmLKG9DAwGzTFis2q2t-58" value="" style="ellipse;html=1;shape=endState;fillColor=#000000;strokeColor=#ff0000;" vertex="1" parent="1">
          <mxGeometry x="430" y="1950" width="30" height="30" as="geometry" />
        </mxCell>
      </root>
    </mxGraphModel>
  </diagram>
</mxfile>
